<?xml version="1.0" encoding="UTF-8"?>
<svg xmlns="http://www.w3.org/2000/svg" xmlns:xlink="http://www.w3.org/1999/xlink" width="42pt" height="42pt" viewBox="0 0 42 42" version="1.1">
<g id="surface1">
<path style=" stroke:none;fill-rule:evenodd;fill:rgb(0%,0%,0%);fill-opacity:1;" d="M 41 21 C 41 32.046875 32.046875 41 21 41 C 9.953125 41 1 32.046875 1 21 C 1 9.953125 9.953125 1 21 1 C 32.046875 1 41 9.953125 41 21 Z M 41 21 "/>
<path style=" stroke:none;fill-rule:evenodd;fill:rgb(100%,100%,100%);fill-opacity:1;" d="M 41 21 C 41 32.046875 32.046875 41 21 41 C 9.953125 41 1 32.046875 1 21 C 1 9.953125 9.953125 1 21 1 C 32.046875 1 41 9.953125 41 21 Z M 41 21 "/>
<path style=" stroke:none;fill-rule:nonzero;fill:rgb(89.411765%,35.294118%,43.137255%);fill-opacity:1;" d="M 19.101562 14.601562 C 18.898438 14.300781 18.601562 14.199219 18.300781 14.199219 L 11.601562 14.699219 C 10.898438 14.800781 10.300781 15.101562 9.898438 15.699219 L 7.101562 20 C 6.800781 20.398438 6.800781 21 7 21.398438 C 7.199219 21.898438 7.601562 22.199219 8.101562 22.300781 L 13.5 23.101562 C 13.5 23.101562 13.601562 23.101562 13.601562 23.101562 C 13.898438 23.101562 14.101562 23 14.300781 22.699219 L 19 15.398438 C 19.300781 15.199219 19.300781 14.898438 19.101562 14.601562 Z M 19.101562 14.601562 "/>
<path style=" stroke:none;fill-rule:nonzero;fill:rgb(84.705882%,18.039216%,26.666667%);fill-opacity:1;" d="M 27.398438 22.898438 C 27.101562 22.699219 26.800781 22.699219 26.5 22.898438 L 19.199219 27.601562 C 18.898438 27.800781 18.800781 28.101562 18.800781 28.398438 L 19.601562 33.800781 C 19.699219 34.300781 20 34.699219 20.5 34.898438 C 20.699219 35 20.898438 35 21.101562 35 C 21.398438 35 21.699219 34.898438 21.898438 34.699219 L 26.199219 31.898438 C 26.800781 31.5 27.101562 30.898438 27.199219 30.199219 L 27.699219 23.5 C 27.800781 23.300781 27.699219 23 27.398438 22.898438 Z M 27.398438 22.898438 "/>
<path style=" stroke:none;fill-rule:nonzero;fill:rgb(94.509804%,94.509804%,98.431373%);fill-opacity:1;" d="M 17.5 29.601562 C 17.800781 29.898438 18.300781 30.101562 18.800781 30 C 25.5 28.898438 30.898438 23.300781 32.898438 19.398438 C 35.101562 15 35.199219 10.398438 35.101562 8.300781 C 35.101562 7.601562 34.5 7 33.699219 6.898438 C 31.5 6.800781 26.898438 6.898438 22.601562 9.101562 C 18.699219 11.101562 13.101562 16.5 12 23.199219 C 11.898438 23.699219 12.101562 24.101562 12.398438 24.5 Z M 17.5 29.601562 "/>
<path style=" stroke:none;fill-rule:nonzero;fill:rgb(84.313725%,83.921569%,98.431373%);fill-opacity:1;" d="M 34.699219 7.300781 L 15 27 L 17.601562 29.601562 C 17.898438 29.898438 18.398438 30.101562 18.898438 30 C 25.601562 28.898438 31 23.300781 33 19.398438 C 35.199219 15 35.300781 10.398438 35.199219 8.300781 C 35.101562 7.898438 34.898438 7.601562 34.699219 7.300781 Z M 34.699219 7.300781 "/>
<path style=" stroke:none;fill-rule:nonzero;fill:rgb(27.45098%,38.431373%,53.333333%);fill-opacity:1;" d="M 26.199219 19.898438 C 25.101562 19.898438 24.101562 19.5 23.300781 18.699219 C 22.5 17.898438 22.101562 16.898438 22.101562 15.800781 C 22.101562 14.699219 22.5 13.699219 23.300781 12.898438 C 24.898438 11.300781 27.5 11.300781 29.101562 12.898438 C 29.898438 13.699219 30.300781 14.699219 30.300781 15.800781 C 30.300781 16.898438 29.898438 17.898438 29.101562 18.699219 C 28.300781 19.5 27.300781 19.898438 26.199219 19.898438 Z M 23.898438 13.398438 Z M 23.898438 13.398438 "/>
<path style=" stroke:none;fill-rule:nonzero;fill:rgb(27.45098%,38.431373%,53.333333%);fill-opacity:1;" d="M 12 23.199219 C 11.898438 23.699219 12.101562 24.101562 12.398438 24.5 L 17.5 29.601562 C 17.800781 29.898438 18.300781 30.101562 18.800781 30 C 20.300781 29.800781 21.699219 29.300781 23 28.699219 L 13.300781 19 C 12.699219 20.398438 12.199219 21.800781 12 23.199219 Z M 12 23.199219 "/>
<path style=" stroke:none;fill-rule:nonzero;fill:rgb(99.215686%,70.588235%,22.745098%);fill-opacity:1;" d="M 7.699219 30.101562 C 7.898438 30.101562 8.101562 30 8.300781 29.898438 L 11 27.199219 C 11.300781 26.898438 11.300781 26.398438 11 26 C 10.699219 25.699219 10.199219 25.699219 9.800781 26 L 7.101562 28.699219 C 6.800781 29 6.800781 29.5 7.101562 29.898438 C 7.300781 30.101562 7.5 30.101562 7.699219 30.101562 Z M 7.699219 30.101562 "/>
<path style=" stroke:none;fill-rule:nonzero;fill:rgb(99.215686%,70.588235%,22.745098%);fill-opacity:1;" d="M 13.5 28.5 C 13.199219 28.199219 12.699219 28.199219 12.300781 28.5 L 7.101562 33.699219 C 6.800781 34 6.800781 34.5 7.101562 34.898438 C 7.300781 35.101562 7.5 35.101562 7.699219 35.101562 C 7.898438 35.101562 8.101562 35 8.300781 34.898438 L 13.5 29.699219 C 13.800781 29.398438 13.800781 28.800781 13.5 28.5 Z M 13.5 28.5 "/>
<path style=" stroke:none;fill-rule:nonzero;fill:rgb(96.078431%,47.843137%,12.941176%);fill-opacity:1;" d="M 16 31 C 15.699219 30.699219 15.199219 30.699219 14.800781 31 L 12.101562 33.699219 C 11.800781 34 11.800781 34.5 12.101562 34.898438 C 12.300781 35.101562 12.5 35.101562 12.699219 35.101562 C 12.898438 35.101562 13.101562 35 13.300781 34.898438 L 16 32.199219 C 16.300781 31.800781 16.300781 31.300781 16 31 Z M 16 31 "/>
<path style=" stroke:none;fill-rule:nonzero;fill:rgb(96.078431%,47.843137%,12.941176%);fill-opacity:1;" d="M 7.101562 34.898438 C 7.300781 35.101562 7.5 35.101562 7.699219 35.101562 C 7.898438 35.101562 8.101562 35 8.300781 34.898438 L 13.5 29.699219 C 13.800781 29.398438 13.800781 28.898438 13.5 28.5 Z M 7.101562 34.898438 "/>
<path style=" stroke:none;fill-rule:nonzero;fill:rgb(20.784314%,29.019608%,40.392157%);fill-opacity:1;" d="M 15 27 L 17.601562 29.601562 C 17.898438 29.898438 18.398438 30.101562 18.898438 30 C 20.398438 29.800781 21.800781 29.300781 23.101562 28.699219 L 18.300781 23.898438 Z M 15 27 "/>
<path style=" stroke:none;fill-rule:nonzero;fill:rgb(20.784314%,29.019608%,40.392157%);fill-opacity:1;" d="M 23.300781 18.699219 C 24.101562 19.5 25.199219 19.898438 26.199219 19.898438 C 27.300781 19.898438 28.300781 19.5 29.101562 18.699219 C 29.898438 17.898438 30.300781 16.898438 30.300781 15.800781 C 30.300781 14.699219 29.898438 13.699219 29.101562 12.898438 Z M 23.300781 18.699219 "/>
<path style=" stroke:none;fill-rule:nonzero;fill:rgb(29.411765%,74.509804%,99.215686%);fill-opacity:1;" d="M 26.199219 13.300781 C 25.601562 13.300781 24.898438 13.5 24.398438 14 C 23.898438 14.5 23.699219 15.101562 23.699219 15.800781 C 23.699219 16.5 24 17.101562 24.398438 17.601562 C 25.398438 18.601562 26.898438 18.601562 27.898438 17.601562 C 28.398438 17.101562 28.601562 16.5 28.601562 15.800781 C 28.601562 15.101562 28.300781 14.5 27.898438 14 C 27.5 13.5 26.898438 13.300781 26.199219 13.300781 Z M 26.199219 13.300781 "/>
<path style=" stroke:none;fill-rule:nonzero;fill:rgb(1.960784%,56.470588%,98.431373%);fill-opacity:1;" d="M 28 14 L 24.5 17.5 C 25.5 18.5 27 18.5 28 17.5 C 28.5 17 28.699219 16.398438 28.699219 15.699219 C 28.699219 15.101562 28.398438 14.5 28 14 Z M 28 14 "/>
</g>
</svg>
